<?xml version="1.0" encoding="UTF-8" standalone="no"?>
<svg
   xmlns:dc="http://purl.org/dc/elements/1.1/"
   xmlns:cc="http://creativecommons.org/ns#"
   xmlns:rdf="http://www.w3.org/1999/02/22-rdf-syntax-ns#"
   xmlns:svg="http://www.w3.org/2000/svg"
   xmlns="http://www.w3.org/2000/svg"
   xmlns:sodipodi="http://sodipodi.sourceforge.net/DTD/sodipodi-0.dtd"
   xmlns:inkscape="http://www.inkscape.org/namespaces/inkscape"
   inkscape:version="1.0 (unknown)"
   sodipodi:docname="network-wired-solid.svg"
   id="svg58"
   version="1.1"
   viewBox="0 0 640 512"
   role="img"
   class="svg-inline--fa fa-network-wired fa-w-20"
   data-icon="network-wired"
   data-prefix="fas"
   focusable="false"
   aria-hidden="true">
  <metadata
     id="metadata64">
    <rdf:RDF>
      <cc:Work
         rdf:about="">
        <dc:format>image/svg+xml</dc:format>
        <dc:type
           rdf:resource="http://purl.org/dc/dcmitype/StillImage" />
      </cc:Work>
    </rdf:RDF>
  </metadata>
  <defs
     id="defs62" />
  <sodipodi:namedview
     inkscape:current-layer="svg58"
     inkscape:window-maximized="0"
     inkscape:window-y="52"
     inkscape:window-x="20"
     inkscape:cy="450.41872"
     inkscape:cx="737.26918"
     inkscape:zoom="0.70710678"
     showgrid="false"
     id="namedview60"
     inkscape:window-height="1008"
     inkscape:window-width="1880"
     inkscape:pageshadow="2"
     inkscape:pageopacity="0"
     guidetolerance="10"
     gridtolerance="10"
     objecttolerance="10"
     borderopacity="1"
     bordercolor="#666666"
     pagecolor="#ffffff" />
  <path
     id="path56"
     d="M640 264v-16c0-8.84-7.16-16-16-16H344v-40h72c17.67 0 32-14.33 32-32V32c0-17.67-14.33-32-32-32H224c-17.67 0-32 14.33-32 32v128c0 17.67 14.33 32 32 32h72v40H16c-8.84 0-16 7.16-16 16v16c0 8.84 7.16 16 16 16h104v40H64c-17.67 0-32 14.33-32 32v128c0 17.67 14.33 32 32 32h160c17.67 0 32-14.33 32-32V352c0-17.67-14.33-32-32-32h-56v-40h304v40h-56c-17.67 0-32 14.33-32 32v128c0 17.67 14.33 32 32 32h160c17.67 0 32-14.33 32-32V352c0-17.67-14.33-32-32-32h-56v-40h104c8.84 0 16-7.16 16-16zM256 128V64h128v64H256zm-64 320H96v-64h96v64zm352 0h-96v-64h96v64z"
     fill="currentColor" />
  <path
     id="path128"
     d="M 302.03352,-0.45569345 C 274.38686,-0.24054242 246.70564,-0.69023716 219.08244,0.33427741 203.49204,2.6298791 190.68497,17.667009 192.18549,33.592978 c -0.54763,44.023658 -0.85984,88.075722 0.2741,132.089652 2.09156,12.36549 12.56127,22.7638 24.41727,25.82055 26.2808,0.13025 52.56161,0.26049 78.84242,0.39074 0,13.41708 0,26.83415 0,40.25123 -95.14039,0.12036 -190.28078,0.24143 -285.421167,0.36322 -5.868929,3.10238 -10.8915363,8.90528 -9.87616602,15.96069 0.41851019,7.53231 -1.68313018,15.63061 1.25139642,22.77827 3.2979998,5.8013 9.7270576,9.58605 16.4896496,8.64265 33.82437,0.62153 67.658299,0.23867 101.486697,0.3481 0,13.17677 0,26.35353 0,39.53031 -20.952804,0.41122 -41.958762,-0.29879 -62.877261,0.95707 -11.83496,2.85632 -22.04552,13.00987 -24.454408,24.91999 0.09515,46.8681 -0.80558,93.75322 0.255336,140.61068 2.690946,14.81261 17.355057,26.76734 32.555914,25.32878 53.625459,0.8974 107.278379,1.00702 160.901319,-0.0801 16.61897,0.29092 30.95875,-15.79005 29.57695,-32.22274 0.86245,-43.76373 1.04073,-87.56507 -0.20026,-131.32195 -0.95928,-16.22868 -16.91719,-28.96616 -32.87908,-27.9169 -18.02642,-0.37522 -36.05908,-0.13924 -54.08814,-0.20716 0,-13.19933 0,-26.39865 0,-39.59798 101.11627,0 202.23254,0 303.34881,0 0,13.19933 0,26.39865 0,39.59798 -20.78247,0.26692 -41.62684,-0.64211 -62.36765,0.8024 -14.63439,2.89227 -26.2591,17.11639 -25.04843,32.19131 -0.37383,42.81798 -0.48732,85.64977 0.0724,128.4657 -0.53093,17.3434 16.37221,32.25569 33.46621,30.4898 50.808,0.52892 101.62782,0.58052 152.43599,0.0938 8.91242,-0.0891 18.75588,-0.23703 25.58152,-6.90119 7.56266,-5.90899 12.34591,-15.06951 11.8247,-24.77221 0.89641,-39.06231 0.43416,-78.15 0.32224,-117.22081 -0.41018,-10.51491 0.87963,-22.55667 -7.01213,-30.85592 -6.20222,-8.10944 -16.21508,-12.53846 -26.36406,-12.05229 -18.2714,-0.45077 -36.55221,-0.15241 -54.82754,-0.24059 0,-13.19933 0,-26.39865 0,-39.59798 35.70889,-0.005 71.41778,-0.009 107.12667,-0.0138 7.29307,-2.34371 13.74652,-8.88539 12.88374,-17.03734 -0.27698,-8.83906 2.4571,-19.42508 -4.48546,-26.46493 -3.53348,-3.1225 -7.71795,-5.53379 -12.57877,-4.56718 -92.76955,0 -185.53911,0 -278.30866,0 0,-13.43503 0,-26.87006 0,-40.30509 25.93989,-0.28092 51.92065,0.61573 77.83422,-0.59524 15.82095,-2.50219 27.11248,-18.61347 25.70168,-34.30297 0.45681,-43.00836 0.75803,-86.041014 -0.28036,-129.040078 C 445.9473,11.448423 429.89707,-1.5264279 413.42229,-0.00550041 376.29578,-0.51979367 339.16284,-0.44908433 302.03352,-0.45569345 Z M 319.93768,64.036036 c 21.27213,0.06031 42.54427,0.120613 63.81639,0.180919 0.1222,21.095357 0.24511,42.190705 0.36874,63.286055 -42.66717,0 -85.33434,0 -128.00151,0 0,-21.21551 0,-42.431008 0,-63.646514 21.27212,0.05985 42.54426,0.119693 63.81638,0.17954 z M 144.04487,384.18277 c 15.90991,0 31.81981,0 47.72971,0 0,21.21321 0,42.42641 0,63.63961 -31.8198,0 -63.63961,0 -95.459414,0 0,-21.2132 0,-42.4264 0,-63.63961 15.909904,0 31.819804,0 47.729704,0 z m 352.13918,0 c 15.9099,0 31.8198,0 47.72971,0 0,21.21321 0,42.42641 0,63.63961 -31.81981,0 -63.63961,0 -95.45942,0 0,-21.2132 0,-42.4264 0,-63.63961 15.9099,0 31.81981,0 47.72971,0 z"
     style="fill:#00aa44;fill-opacity:1;stroke:#00aa44;stroke-width:0.707107" />
</svg>
